<svg width="47" height="38" viewBox="0 0 47 38" fill="none" xmlns="http://www.w3.org/2000/svg">
<mask id="mask0_1_50" style="mask-type:luminance" maskUnits="userSpaceOnUse" x="0" y="0" width="47" height="38">
<path d="M46.5 0.300003H0.5V37.3H46.5V0.300003Z" fill="white"/>
</mask>
<g mask="url(#mask0_1_50)">
<path d="M34.9304 1.15742C36.0216 1.15742 36.9057 2.04148 36.9057 3.13273C36.9057 4.22398 36.0216 5.10806 34.9304 5.10806C33.8391 5.10806 32.9551 4.22398 32.9551 3.13273C32.9551 2.04148 33.8391 1.15742 34.9304 1.15742Z" fill="#8CBCFF"/>
<path d="M38.3712 19.8953C39.0902 26.3575 35.3205 32.7353 28.9699 35.2356C22.6399 37.7266 15.633 35.5975 11.6759 30.4713L11.6543 30.3747C20.0965 28.4818 30.9474 24.2039 38.3515 19.8625L38.3712 19.8953Z" fill="#FAF4D3"/>
<path d="M37.8968 17.3462L37.9511 17.4503C30.5646 21.3031 18.2921 26.1305 10.2687 28.3431L10.2255 28.1866C6.18246 20.3644 9.7668 10.686 18.0302 7.43405C26.5723 4.07339 35.7601 9.1995 37.8968 17.3462Z" fill="#FAF4D3"/>
<path d="M38.353 19.8626C24.6587 27.8922 2.60688 34.0485 1.078 30.1592C0.471439 28.618 3.44425 25.8683 8.53863 22.8701L8.63706 22.8608C8.71863 23.653 8.86488 24.4461 9.07863 25.2345L8.95956 25.2664C1.3796 29.2292 1.86503 30.6632 10.2692 28.3433C13.9986 27.3148 18.973 25.6273 24.3552 23.5095C42.0412 16.5497 50.0013 10.6907 36.8671 14.2892L36.7152 14.3689C36.3383 13.6489 35.9071 12.9711 35.4299 12.3373L35.5443 12.2501C48.2086 9.45981 49.6389 13.2519 38.353 19.8626Z" fill="#FFF68E"/>
<path d="M39.9029 31.8723C40.3529 31.8939 40.6988 32.2764 40.6773 32.7254C40.6548 33.1754 40.2732 33.5214 39.8242 33.4998C39.3742 33.4773 39.0282 33.0958 39.0498 32.6458C39.0723 32.1967 39.4538 31.8498 39.9029 31.8723Z" fill="black"/>
<path d="M5.42211 4.76238C5.87205 4.76238 6.2368 4.39764 6.2368 3.9477C6.2368 3.49776 5.87205 3.13301 5.42211 3.13301C4.97217 3.13301 4.60742 3.49776 4.60742 3.9477C4.60742 4.39764 4.97217 4.76238 5.42211 4.76238Z" fill="black"/>
<path d="M23.5086 36.7503C22.1019 36.7503 20.6916 36.5544 19.3051 36.1611C16.1433 35.2643 13.3021 33.3453 11.3048 30.758C11.1465 30.5531 11.1845 30.2587 11.3894 30.1006C11.5944 29.9424 11.8887 29.9803 12.0469 30.1852C14.8331 33.7946 19.1369 35.7949 23.5366 35.7952C25.306 35.7953 27.0899 35.472 28.7982 34.7998C34.8674 32.4103 38.6124 26.3028 37.9052 19.9475C37.8766 19.6903 38.062 19.4584 38.3193 19.4298C38.5759 19.4013 38.8084 19.5866 38.837 19.8439C39.5908 26.6192 35.6039 33.1279 29.1415 35.6722C27.3179 36.3897 25.4167 36.7503 23.5086 36.7503Z" fill="black"/>
<path d="M10.2249 28.655C10.0552 28.655 9.89143 28.5626 9.80818 28.4014C9.57258 27.9458 9.35527 27.4666 9.16224 26.9773C8.95383 26.4467 8.77308 25.9019 8.62477 25.3572C8.40708 24.5542 8.2538 23.7304 8.16924 22.9082C7.83061 19.6277 8.5824 16.2541 10.2861 13.4091C12.0453 10.4715 14.6635 8.25445 17.8576 6.99745C24.2775 4.47173 31.6567 6.55138 35.8028 12.0547C36.3013 12.7168 36.7474 13.4219 37.129 14.1509C37.3888 14.6437 37.6267 15.1626 37.8351 15.6919C38.0637 16.2731 38.227 16.7608 38.3492 17.2269C38.415 17.4773 38.2652 17.7335 38.0148 17.7992C37.7648 17.8649 37.5083 17.7152 37.4426 17.4648C37.3299 17.0353 37.1774 16.5809 36.9628 16.0351C36.767 15.5379 36.5436 15.0507 36.2991 14.587C35.9405 13.9018 35.5217 13.24 35.0539 12.6187C31.1606 7.45063 24.2304 5.49773 18.201 7.86988C12.18 10.2393 8.43821 16.3838 9.10186 22.812C9.18136 23.5841 9.32527 24.3576 9.52955 25.1114C9.66887 25.6229 9.83883 26.1354 10.0347 26.6339C10.2159 27.0932 10.42 27.5433 10.6411 27.9709C10.7599 28.2009 10.6699 28.4836 10.4399 28.6025C10.371 28.6381 10.2974 28.655 10.2249 28.655Z" fill="black"/>
<path d="M4.59097 31.819C2.60637 31.819 1.0714 31.4253 0.640997 30.3303C-0.245691 28.0774 4.31675 24.8101 8.30009 22.4658C8.52331 22.3344 8.81056 22.4089 8.94181 22.632C9.07315 22.8551 8.99872 23.1424 8.77559 23.2737C2.84 26.7669 1.15381 29.0733 1.51343 29.9871C1.87465 30.9062 4.70281 31.4432 11.4847 29.9319L11.5138 29.9255C11.528 29.9223 11.5423 29.9191 11.557 29.9161C15.6582 28.9961 20.3703 27.5088 25.184 25.6145C30.0212 23.7109 34.4927 21.5819 38.1151 19.4579C44.1357 15.9314 45.8482 13.6038 45.4855 12.6821C45.1275 11.7724 42.3354 11.2334 35.6443 12.7076C35.3916 12.7632 35.1414 12.6035 35.0858 12.3507C35.0301 12.0979 35.1898 11.8478 35.4427 11.7921C39.9345 10.8024 45.4743 10.0939 46.3578 12.3389C47.2507 14.6074 42.626 17.9023 38.5892 20.2669C34.9258 22.4149 30.4091 24.5658 25.5274 26.4871C20.6679 28.3993 15.9064 29.9017 11.7577 30.832C11.7543 30.8328 11.7509 30.8335 11.7477 30.8342L11.6821 30.8486C9.33734 31.3709 6.70831 31.8189 4.59097 31.819Z" fill="black"/>
<path d="M4.57987 29.9257C3.77512 29.9257 3.34209 29.7341 3.18318 29.3303C2.96615 28.7796 3.39187 28.1706 4.60678 27.2942C5.54737 26.6157 6.93871 25.7936 8.74218 24.8508C8.97178 24.7309 9.2549 24.8197 9.37481 25.0491C9.49471 25.2785 9.40603 25.5617 9.17653 25.6817C5.29218 27.7124 4.35796 28.6468 4.13568 28.9557C4.51106 29.0306 5.84662 29.0777 10.1443 27.8913C14.0122 26.8247 18.9979 25.1137 24.1834 23.0732C29.3684 21.0328 34.1811 18.8883 37.7347 17.0348C41.695 14.9714 42.6409 14.0254 42.8644 13.7144C42.4927 13.6402 41.1802 13.5933 36.9907 14.7412C36.7409 14.8095 36.4832 14.6627 36.4147 14.4129C36.3464 14.1633 36.4933 13.9054 36.743 13.8369C38.6923 13.3028 40.26 12.96 41.4024 12.8178C42.8791 12.6341 43.601 12.7901 43.8169 13.3395C44.0347 13.894 43.6019 14.5083 42.3693 15.3934C41.4136 16.0796 40.0001 16.9115 38.1682 17.8659C34.5862 19.7343 29.7414 21.8933 24.5266 23.9455C19.3114 25.9977 14.2922 27.7199 10.3936 28.795C8.40421 29.3441 6.80465 29.6981 5.63953 29.847C5.23134 29.899 4.87968 29.9257 4.57987 29.9257Z" fill="black"/>
<path d="M34.9304 5.57681C33.5827 5.57681 32.4863 4.48039 32.4863 3.13273C32.4863 1.78508 33.5827 0.688675 34.9304 0.688675C36.278 0.688675 37.3745 1.78508 37.3745 3.13273C37.3745 4.48039 36.278 5.57681 34.9304 5.57681ZM34.9304 1.62617C34.0997 1.62617 33.4238 2.30202 33.4238 3.13273C33.4238 3.96345 34.0997 4.63931 34.9304 4.63931C35.7611 4.63931 36.437 3.96345 36.437 3.13273C36.437 2.30202 35.7611 1.62617 34.9304 1.62617Z" fill="black"/>
</g>
</svg>
